<svg width="413" height="108" viewBox="0 0 413 108" fill="none" xmlns="http://www.w3.org/2000/svg">
<path d="M22.2726 107.872C17.4882 107.872 13.4255 106.965 10.0846 105.15C6.78491 103.294 4.26892 100.84 2.53661 97.7879C0.845536 94.6945 0 91.2917 0 87.5796C0 84.4862 0.474325 81.6608 1.42297 79.1036C2.37162 76.5464 3.89771 74.2985 6.00124 72.3599C8.14601 70.3801 11.0126 68.7303 14.601 67.4105C17.0757 66.503 20.0248 65.6988 23.4481 64.9976C26.8715 64.2964 30.7486 63.6365 35.0794 63.0178C39.4102 62.3579 44.1741 61.6361 49.371 60.8524L43.3079 64.1933C43.3079 60.2337 42.3593 57.3259 40.462 55.4698C38.5647 53.6138 35.3888 52.6858 30.9342 52.6858C28.4595 52.6858 25.8816 53.2838 23.2007 54.4799C20.5197 55.6761 18.643 57.8002 17.5706 60.8524L2.351 56.0267C4.04207 50.4997 7.21799 46.004 11.8787 42.5393C16.5395 39.0747 22.8913 37.3424 30.9342 37.3424C36.8324 37.3424 42.0706 38.2498 46.6488 40.0646C51.2271 41.8794 54.6917 45.0141 57.0427 49.4686C58.3626 51.9433 59.1463 54.4181 59.3937 56.8928C59.6412 59.3675 59.7649 62.131 59.7649 65.1832V106.016H45.0402V92.2816L47.1438 95.1275C43.8854 99.6233 40.3589 102.882 36.5643 104.903C32.8109 106.883 28.047 107.872 22.2726 107.872ZM25.861 94.6326C28.9544 94.6326 31.5529 94.0964 33.6564 93.024C35.8012 91.9104 37.4923 90.6524 38.7297 89.25C40.0083 87.8477 40.8744 86.6722 41.3281 85.7235C42.1943 83.9087 42.6892 81.8052 42.813 79.4129C42.978 76.9794 43.0604 74.9584 43.0604 73.3498L48.0099 74.5872C43.0192 75.4121 38.9771 76.1133 35.8837 76.6907C32.7903 77.2269 30.2949 77.7219 28.3976 78.1756C26.5003 78.6293 24.8299 79.1242 23.3863 79.6604C21.7365 80.3203 20.396 81.0421 19.3648 81.8258C18.3749 82.5682 17.6325 83.3931 17.1376 84.3005C16.6839 85.208 16.457 86.2185 16.457 87.3321C16.457 88.8582 16.8282 90.178 17.5706 91.2917C18.3543 92.3641 19.4473 93.189 20.8497 93.7664C22.252 94.3439 23.9225 94.6326 25.861 94.6326Z" fill="#1F6FEB"/>
<path d="M72.1396 106.016V39.1984H88.9678V106.016H72.1396Z" fill="#1F6FEB"/>
<path d="M142.657 106.016C138.038 106.883 133.501 107.254 129.046 107.13C124.633 107.048 120.673 106.284 117.167 104.841C113.703 103.356 111.063 100.984 109.248 97.726C107.598 94.6738 106.732 91.5804 106.65 88.4457C106.567 85.2698 106.526 81.6814 106.526 77.6806V20.6379H123.354V76.6907C123.354 79.2892 123.375 81.6402 123.416 83.7437C123.498 85.806 123.932 87.4558 124.715 88.6932C126.2 91.0442 128.572 92.3228 131.83 92.5291C135.089 92.7353 138.697 92.5703 142.657 92.0341V106.016ZM95.1421 52.1908V39.1984H142.657V52.1908H95.1421Z" fill="#1F6FEB"/>
<path d="M152.474 106.016L152.598 16.9258H169.673V71.37L192.317 39.1984H213.105L188.976 72.6074L214.714 106.016H192.812L169.673 73.8448V106.016H152.474Z" fill="#1F6FEB"/>
<path d="M245.771 107.872C238.924 107.872 232.881 106.408 227.643 103.48C222.446 100.51 218.363 96.4474 215.393 91.2917C212.465 86.0947 211 80.1554 211 73.4736C211 66.1731 212.444 59.8213 215.331 54.4181C218.218 49.0149 222.199 44.8285 227.272 41.8588C232.345 38.8478 238.181 37.3424 244.781 37.3424C251.792 37.3424 257.752 38.9922 262.661 42.2919C267.569 45.5915 271.198 50.2316 273.549 56.2123C275.9 62.1929 276.725 69.2253 276.024 77.3094H259.382V71.1226C259.382 64.317 258.289 59.4294 256.103 56.4597C253.958 53.4488 250.431 51.9433 245.523 51.9433C239.79 51.9433 235.562 53.6963 232.84 57.2022C230.159 60.6668 228.819 65.8019 228.819 72.6074C228.819 78.8355 230.159 83.6612 232.84 87.0846C235.562 90.4668 239.542 92.1578 244.781 92.1578C248.08 92.1578 250.906 91.436 253.257 89.9924C255.608 88.5489 257.402 86.4659 258.639 83.7437L275.467 88.5695C272.951 94.6738 268.971 99.4171 263.527 102.799C258.124 106.181 252.205 107.872 245.771 107.872ZM223.622 77.3094V64.812H267.919V77.3094H223.622Z" fill="#1F6FEB"/>
<path d="M328.767 106.016V74.4635C328.767 72.9374 328.685 70.9988 328.52 68.6478C328.355 66.2556 327.839 63.8633 326.973 61.4711C326.107 59.0788 324.684 57.0784 322.704 55.4698C320.765 53.8613 318.002 53.057 314.414 53.057C312.97 53.057 311.423 53.2838 309.773 53.7375C308.124 54.1912 306.577 55.078 305.133 56.3979C303.69 57.6765 302.494 59.5738 301.545 62.0898C300.638 64.6057 300.184 67.9466 300.184 72.1125L290.532 67.5342C290.532 62.2547 291.605 57.3053 293.75 52.6858C295.894 48.0662 299.111 44.3335 303.401 41.4876C307.732 38.6416 313.176 37.2186 319.734 37.2186C324.972 37.2186 329.241 38.1054 332.541 39.879C335.841 41.6525 338.398 43.9004 340.213 46.6226C342.069 49.3449 343.389 52.1908 344.172 55.1605C344.956 58.0889 345.43 60.7699 345.595 63.2034C345.76 65.6369 345.843 67.4104 345.843 68.5241V106.016H328.767ZM283.108 106.016V39.1984H298.08V61.3473H300.184V106.016H283.108Z" fill="#1F6FEB"/>
<path d="M375.508 107.872C370.723 107.872 366.661 106.965 363.32 105.15C360.02 103.294 357.504 100.84 355.772 97.7879C354.081 94.6945 353.235 91.2917 353.235 87.5796C353.235 84.4862 353.709 81.6608 354.658 79.1036C355.607 76.5464 357.133 74.2985 359.236 72.3599C361.381 70.3801 364.248 68.7303 367.836 67.4105C370.311 66.503 373.26 65.6988 376.683 64.9976C380.107 64.2964 383.984 63.6365 388.314 63.0178C392.645 62.3579 397.409 61.6361 402.606 60.8524L396.543 64.1933C396.543 60.2337 395.594 57.3259 393.697 55.4698C391.8 53.6138 388.624 52.6858 384.169 52.6858C381.695 52.6858 379.117 53.2838 376.436 54.4799C373.755 55.6761 371.878 57.8002 370.806 60.8524L355.586 56.0267C357.277 50.4997 360.453 46.004 365.114 42.5393C369.775 39.0747 376.126 37.3424 384.169 37.3424C390.067 37.3424 395.306 38.2498 399.884 40.0646C404.462 41.8794 407.927 45.0141 410.278 49.4686C411.598 51.9433 412.381 54.4181 412.629 56.8928C412.876 59.3675 413 62.131 413 65.1832V106.016H398.275V92.2816L400.379 95.1275C397.12 99.6233 393.594 102.882 389.799 104.903C386.046 106.883 381.282 107.872 375.508 107.872ZM379.096 94.6326C382.19 94.6326 384.788 94.0964 386.892 93.024C389.036 91.9104 390.727 90.6524 391.965 89.25C393.243 87.8477 394.11 86.6722 394.563 85.7235C395.429 83.9087 395.924 81.8052 396.048 79.4129C396.213 76.9794 396.296 74.9584 396.296 73.3498L401.245 74.5872C396.254 75.4121 392.212 76.1133 389.119 76.6907C386.025 77.2269 383.53 77.7219 381.633 78.1756C379.735 78.6293 378.065 79.1242 376.621 79.6604C374.972 80.3203 373.631 81.0421 372.6 81.8258C371.61 82.5682 370.868 83.3931 370.373 84.3005C369.919 85.208 369.692 86.2185 369.692 87.3321C369.692 88.8582 370.063 90.178 370.806 91.2917C371.589 92.3641 372.682 93.189 374.085 93.7664C375.487 94.3439 377.158 94.6326 379.096 94.6326Z" fill="#1F6FEB"/>
<path d="M95.5368 16.2337C96.3152 16.4989 96.3164 17.6603 95.5387 17.9274C87.6121 20.6501 83.9379 24.0654 81.5235 31.6269C81.2667 32.4311 80.0407 32.4491 79.7697 31.6496C77.1347 23.8762 73.6834 20.3423 66.2727 17.9335C65.4705 17.6728 65.4617 16.4472 66.2611 16.1779C73.6686 13.6826 77.1725 10.2566 79.8234 2.69104C80.0955 1.91428 81.2666 1.91481 81.5395 2.69132C84.1903 10.2345 87.8239 13.6056 95.5368 16.2337Z" fill="#1F6FEB"/>
</svg>
